<svg xmlns="http://www.w3.org/2000/svg" width="9.647" height="17.843" viewBox="0 0 9.647 17.843"><defs><style>.a{fill:#707179;}</style></defs><path class="a" d="M31.36,0,29.047,0a4.063,4.063,0,0,0-4.279,4.391V6.416H22.441a.364.364,0,0,0-.364.364V9.713a.364.364,0,0,0,.364.364h2.326v7.4a.364.364,0,0,0,.364.364h3.035a.364.364,0,0,0,.364-.364v-7.4h2.72a.364.364,0,0,0,.364-.364V6.78a.364.364,0,0,0-.364-.364H28.53V4.7c0-.825.2-1.244,1.271-1.244H31.36a.364.364,0,0,0,.364-.364V.368A.364.364,0,0,0,31.36,0Z" transform="translate(-22.077)"/></svg>