<svg xmlns="http://www.w3.org/2000/svg" width="8.149" height="15.073" viewBox="0 0 8.149 15.073"><defs><style>.a{fill:#fff;}</style></defs><path class="a" d="M29.919,0,27.965,0A3.433,3.433,0,0,0,24.35,3.709V5.42H22.384a.307.307,0,0,0-.307.307V8.205a.307.307,0,0,0,.307.307H24.35v6.253a.307.307,0,0,0,.307.307h2.564a.307.307,0,0,0,.307-.307V8.513h2.3a.307.307,0,0,0,.307-.307V5.727a.308.308,0,0,0-.307-.307h-2.3V3.97c0-.7.166-1.051,1.074-1.051h1.317a.307.307,0,0,0,.307-.307V.31A.307.307,0,0,0,29.919,0Z" transform="translate(-22.077)"/></svg>