<svg xmlns="http://www.w3.org/2000/svg" xmlns:xlink="http://www.w3.org/1999/xlink" width="150.069" height="128.172" viewBox="0 0 150.069 128.172"><defs><style>.a{fill:url(#a);}.b{fill:url(#b);}.c{fill:url(#c);}.d{fill:url(#d);}.e{fill:url(#e);}.f{fill:url(#f);}.g{fill:url(#g);}.h{fill:url(#h);}.i{fill:url(#i);}.j{fill:url(#j);}.k{fill:url(#k);}.l{fill:url(#l);}.m{fill:url(#m);}.n{fill:url(#n);}.o{fill:url(#o);}.p{fill:url(#p);}.q{fill:url(#q);}.r{fill:#fff;}.s{fill:url(#r);}.t{fill:url(#s);}.u{fill:url(#t);}.v{fill:url(#u);}.w{fill:url(#v);}</style><linearGradient id="a" x1="1.133" y1="2.155" x2="0.295" y2="-0.05" gradientUnits="objectBoundingBox"><stop offset="0" stop-color="#fabf17"/><stop offset="0.503" stop-color="#f57e15"/><stop offset="1" stop-color="#ec2115"/></linearGradient><linearGradient id="b" x1="1.342" y1="1.98" x2="-0.618" y2="-1.502" xlink:href="#a"/><linearGradient id="c" x1="0.962" y1="1.857" x2="0.404" y2="0.261" xlink:href="#a"/><linearGradient id="d" x1="1.16" y1="3.94" x2="0.245" y2="-0.571" xlink:href="#a"/><linearGradient id="e" x1="1.441" y1="3.171" x2="0.144" y2="-0.516" xlink:href="#a"/><linearGradient id="f" x1="1.576" y1="4.127" x2="-0.128" y2="-1.468" xlink:href="#a"/><linearGradient id="g" x1="4.417" y1="20.606" x2="-0.642" y2="-5.123" xlink:href="#a"/><linearGradient id="h" x1="4.835" y1="18.032" x2="-0.856" y2="-5.273" xlink:href="#a"/><linearGradient id="i" x1="0.991" y1="2.878" x2="0.135" y2="-1.046" xlink:href="#a"/><linearGradient id="j" x1="1.229" y1="3.551" x2="-0.055" y2="-1.627" xlink:href="#a"/><linearGradient id="k" x1="3.902" y1="18.576" x2="-3.39" y2="-19.73" xlink:href="#a"/><linearGradient id="l" x1="4.243" y1="16.08" x2="-3.93" y2="-18.496" xlink:href="#a"/><linearGradient id="m" x1="0.899" y1="1.457" x2="0.105" y2="-0.777" xlink:href="#a"/><linearGradient id="n" x1="1.42" y1="3.458" x2="-1.103" y2="-4.469" xlink:href="#a"/><linearGradient id="o" x1="1.002" y1="2.845" x2="-0.4" y2="-3.346" xlink:href="#a"/><linearGradient id="p" x1="1.301" y1="2.083" x2="-0.882" y2="-2.249" xlink:href="#a"/><linearGradient id="q" x1="1.282" y1="2.796" x2="-0.857" y2="-3.469" xlink:href="#a"/><linearGradient id="r" x1="0.636" y1="2.634" x2="0.121" y2="-7.198" xlink:href="#a"/><linearGradient id="s" x1="2.306" y1="10.511" x2="-0.398" y2="-4.544" xlink:href="#a"/><linearGradient id="t" x1="2.014" y1="13.801" x2="-0.508" y2="-8.447" xlink:href="#a"/><linearGradient id="u" x1="3.549" y1="18.862" x2="0.899" y2="2.845" xlink:href="#a"/><linearGradient id="v" x1="5.9" y1="15.779" x2="1.336" y2="2.92" xlink:href="#a"/></defs><g transform="translate(-474.81 -210.233)"><path class="a" d="M667.269,268.321q.662.108,1.277,1.169a8.835,8.835,0,0,1,.917,2.247,4.735,4.735,0,0,1,.118,2.1.829.829,0,0,1-1.12.716,5.012,5.012,0,0,1-1.317-.357l-1.279-.568q-.735-.323-1.909-.745a30.183,30.183,0,0,0-3.209-.888q-2.853,4.8-5.542,10.243t-4.842,10.707a104.643,104.643,0,0,0-3.523,9.9,34.349,34.349,0,0,0-1.525,7.741c-.028.565.02.886.147.964s.18.3.161.682-.239.506-.659.388a3.457,3.457,0,0,1-1.373-.892,6.285,6.285,0,0,1-1.318-2.022,6.746,6.746,0,0,1-.487-3.073,34.275,34.275,0,0,1,1.4-7.535q1.246-4.356,3.126-9.174t4.183-9.752q2.3-4.935,4.629-9.2-3.473-.619-5.9-.933t-4.006-.508q-1.575-.194-2.407-.241a5.442,5.442,0,0,1-1.105-.133.759.759,0,0,1-.518-.206,2.733,2.733,0,0,1-.289-.335,1.154,1.154,0,0,1-.2-.507q.018-.353,1.527-.517t3.848-.209q2.337-.046,5.227.01t5.72.143q1.338-2.332,2.574-4.247t2.3-3.271a19.765,19.765,0,0,1,1.885-2.125,2.089,2.089,0,0,1,1.316-.741,3.1,3.1,0,0,1,1.613.551,4.64,4.64,0,0,1,1.167,1.128,3.442,3.442,0,0,1,.576,1.272,1.056,1.056,0,0,1-.1.915q-1.18,1.352-2.461,3.085t-2.611,3.856q1.275.072,2.3.164T667.269,268.321Z" transform="translate(-95.933 -27.131)"/><path class="b" d="M640.7,385.279a2.088,2.088,0,0,1,1.109.175,3.164,3.164,0,0,1,.917.618,2.527,2.527,0,0,1,.561.782.734.734,0,0,1-.03.724,44.187,44.187,0,0,0-2.644,4.863q-1.285,2.726-2.372,5.678t-1.976,5.957q-.888,3-1.492,5.7t-.883,4.916a17.121,17.121,0,0,0-.15,3.593,3.8,3.8,0,0,0,.1.61,2.641,2.641,0,0,0,.134.383l.148.331a1.5,1.5,0,0,1,.1.461q.037.393-.421.345a2.626,2.626,0,0,1-1.046-.405,4.49,4.49,0,0,1-1.1-.97,2.5,2.5,0,0,1-.587-1.4,22.777,22.777,0,0,1,.3-5.472q.505-3.26,1.405-6.837t2.068-7.134q1.166-3.557,2.3-6.415a46.215,46.215,0,0,1,2.1-4.654Q640.194,385.336,640.7,385.279Z" transform="translate(-90.324 -101.22)"/><path class="c" d="M513.466,265.643a101.677,101.677,0,0,1-4.825,10.474q-2.775,5.239-5.87,10.021a107.684,107.684,0,0,1-6.4,8.895,86.147,86.147,0,0,1-6.31,7.1,34.418,34.418,0,0,1-5.6,4.641,7.844,7.844,0,0,1-4.381,1.553,3.434,3.434,0,0,1-1.923-.81,9.16,9.16,0,0,1-1.7-1.762,11.238,11.238,0,0,1-1.206-2.041,3.866,3.866,0,0,1-.435-1.647,11.068,11.068,0,0,1,1.43-4.524,38.009,38.009,0,0,1,3.538-5.372,74.108,74.108,0,0,1,5.114-5.9q2.9-3.038,6.224-6.054t6.8-5.89q3.483-2.874,6.918-5.489,1.688-3.5,3.213-7.144t2.73-7.127q1.206-3.485,1.981-6.6a29.1,29.1,0,0,0,.892-5.476,29.607,29.607,0,0,0,0-3.552,13.553,13.553,0,0,0-.305-2.166,2.58,2.58,0,0,0-.463-1.078.77.77,0,0,0-.468-.289,8,8,0,0,0-4.4,1.288,25.9,25.9,0,0,0-4.87,3.762,46.614,46.614,0,0,0-4.817,5.475,53.539,53.539,0,0,0-4.213,6.474,46.8,46.8,0,0,0-3.052,6.671,20.958,20.958,0,0,0-1.333,6.021,7,7,0,0,0,.444,3.533,2.8,2.8,0,0,0,1.346,1.3,3.123,3.123,0,0,0,1.4.254q.622-.052.605.3-.048.964-1.538,1.142a5.7,5.7,0,0,1-3.2-.662,8.643,8.643,0,0,1-3.1-2.717,7.6,7.6,0,0,1-1.231-5.025,23.174,23.174,0,0,1,1.391-6.5,43.52,43.52,0,0,1,3.28-7.1,56.136,56.136,0,0,1,4.647-6.888,42.934,42.934,0,0,1,5.489-5.832,27.6,27.6,0,0,1,5.81-3.972,11.252,11.252,0,0,1,5.677-1.3,4.624,4.624,0,0,1,2.759,1.295A12.2,12.2,0,0,1,516,236.095a17.891,17.891,0,0,1,1.742,4.439,17.494,17.494,0,0,1,.5,5.2,47.077,47.077,0,0,1-1.117,7.919,77.726,77.726,0,0,1-2.457,8.546Zm-34.044,36.509q1.236.07,3.862-2.2a53.965,53.965,0,0,0,5.884-6.161,111.107,111.107,0,0,0,6.715-9.009,104.881,104.881,0,0,0,6.353-10.739q-4.1,3.542-8.181,7.348t-7.325,7.439a55.3,55.3,0,0,0-5.336,6.894,12.182,12.182,0,0,0-2.212,5.709C479.158,301.9,479.239,302.142,479.421,302.152Z" transform="translate(0 -12.367)"/><path class="d" d="M577.071,330.957a1.7,1.7,0,0,1-1.192-.633,4.658,4.658,0,0,1-.847-1.429,8.643,8.643,0,0,1-.468-1.762,7.936,7.936,0,0,1-.113-1.635,7.217,7.217,0,0,1,.328-1.576q.3-1.009.754-2.295t1.026-2.74q.573-1.456,1.2-2.837-1.426,1.832-3.325,4.24t-3.675,4.575q-1.776,2.168-3.249,3.82a7.948,7.948,0,0,1-2.1,1.9.2.2,0,0,1-.17.061,1.774,1.774,0,0,1-1-.517,7.906,7.906,0,0,1-1.107-1.231,7.112,7.112,0,0,1-.893-1.608,4.074,4.074,0,0,1-.3-1.717,10.706,10.706,0,0,1,.811-2.894q.766-1.976,1.972-4.423t2.639-4.987q1.432-2.539,2.79-4.66a35.444,35.444,0,0,1,2.481-3.473q1.123-1.353,1.734-1.32a5.376,5.376,0,0,1,2.171.512,4.283,4.283,0,0,1,1.287.957,2.179,2.179,0,0,1,.533,1.021.852.852,0,0,1-.091.7q-.354.4-1.249,1.63t-2.064,2.93q-1.17,1.705-2.495,3.756t-2.542,4.143q-1.217,2.093-2.206,4.091a27.717,27.717,0,0,0-1.514,3.6q.769-.948,2.1-2.609t2.931-3.59q1.6-1.929,3.254-3.926t3.016-3.62q1.359-1.624,2.3-2.634t1.107-1a1.668,1.668,0,0,1,.729.431,7.884,7.884,0,0,1,1.006,1.013,10.633,10.633,0,0,1,.885,1.218,1.93,1.93,0,0,1,.365,1.048,4.906,4.906,0,0,1-.49,1.46q-.469,1.036-1.149,2.414t-1.454,2.965q-.775,1.586-1.461,3.105t-1.168,2.8a7.2,7.2,0,0,0-.516,1.99c-.014.283.071.429.256.439q.61.034,1.75-1.071a31.112,31.112,0,0,0,2.5-2.8q1.363-1.693,2.767-3.634t2.541-3.576l.949,1.045q-1.256,1.772-2.836,3.913t-3.176,4.037a32.872,32.872,0,0,1-2.993,3.161A3.612,3.612,0,0,1,577.071,330.957Z" transform="translate(-50.382 -54.12)"/><path class="e" d="M625.67,304.116c-.012.236-.065.375-.159.416a.557.557,0,0,1-.253.056.222.222,0,0,1-.213-.189.259.259,0,0,0-.268-.192,4.686,4.686,0,0,0-1.58,1.01,23.441,23.441,0,0,0-2.773,2.642,22.922,22.922,0,0,0-2.652,3.57,8.118,8.118,0,0,0-1.273,3.789,10.089,10.089,0,0,0,.336,3.313,25.6,25.6,0,0,0,.974,2.782q.547,1.306.984,2.569a7.434,7.434,0,0,1,.36,2.818,5.826,5.826,0,0,1-.893,2.854,9.145,9.145,0,0,1-2,2.261,9.694,9.694,0,0,1-2.521,1.488,5.711,5.711,0,0,1-2.387.468,4.579,4.579,0,0,1-1.921-.5,5.183,5.183,0,0,1-1.367-1.033,4.128,4.128,0,0,1-.826-1.286,3.036,3.036,0,0,1-.243-1.253q.046-.919.545-.89.278.015.324.2c.031.119.361.2.989.232a7.755,7.755,0,0,0,2.125-.235,9.994,9.994,0,0,0,2.351-.86,6.412,6.412,0,0,0,1.909-1.486,3.381,3.381,0,0,0,.856-2.112,5.946,5.946,0,0,0-.4-2.006q-.435-1.3-.966-2.922a32.359,32.359,0,0,1-.933-3.594,16.311,16.311,0,0,1-.3-4.09,10.641,10.641,0,0,1,.962-3.7,20.2,20.2,0,0,1,2.133-3.741,14.839,14.839,0,0,1,2.645-2.862,3.853,3.853,0,0,1,2.555-1.061,2.789,2.789,0,0,1,1.256.46,7.441,7.441,0,0,1,1.285.993,6.9,6.9,0,0,1,.971,1.153A1.74,1.74,0,0,1,625.67,304.116Z" transform="translate(-76.439 -52.239)"/><path class="f" d="M672.052,344.088a3.72,3.72,0,0,0,2.29-.975,15.59,15.59,0,0,0,2.351-2.461,39.145,39.145,0,0,0,2.31-3.309q1.139-1.814,2.168-3.52l.961,1.072c-.759,1.233-1.62,2.518-2.578,4.034s-1.946,2.952-2.962,4.305a23.438,23.438,0,0,1-3.086,3.422,4.605,4.605,0,0,1-2.9,1.4,1.389,1.389,0,0,1-.727-.312,3.436,3.436,0,0,1-.876-.983,7.009,7.009,0,0,1-.748-1.726,9.636,9.636,0,0,1-.345-2.613,9.277,9.277,0,0,1,.379-2.514,29.972,29.972,0,0,1,1.037-3.086q.641-1.631,1.339-3.265t1.343-3.053q.645-1.419,1.046-2.449a4.7,4.7,0,0,0,.4-1.383q-.01-.636.576-.465a3.724,3.724,0,0,1,1.289.767,8.255,8.255,0,0,1,1.3,1.4,2.611,2.611,0,0,1,.6,1.445,4,4,0,0,1-.4,1.206q-.4.923-.995,2.166t-1.32,2.7q-.728,1.457-1.317,2.876t-.988,2.626a6.32,6.32,0,0,0-.386,1.984Q671.83,344.09,672.052,344.088Z" transform="translate(-111.673 -67.05)"/><g transform="translate(564.445 249.927)"><path class="g" d="M688.315,307.878a22.507,22.507,0,0,0,.932-2.67c.176-.681.658-.854.806-.847a2.357,2.357,0,0,1,1.181.443,5.061,5.061,0,0,1,1.106,1.006,3.8,3.8,0,0,1,.683,1.2.941.941,0,0,1-.088.951c-.226.264-.3.472-.761,1.159" transform="translate(-687.915 -304.361)"/><path class="h" d="M691.625,313.943c-.455.852-.826,1.637-1.107,2.308a4.832,4.832,0,0,0-.437,1.43q-.014.424-.451.192a3.482,3.482,0,0,1-.945-.822,6.817,6.817,0,0,1-.925-1.422,3.322,3.322,0,0,1-.391-1.61,4.567,4.567,0,0,1,.4-1.317" transform="translate(-687.366 -309.184)"/></g><path class="i" d="M716.73,333.32q-1.256,1.772-2.866,3.948t-3.262,4.1a23.406,23.406,0,0,1-3.3,3.215,4.607,4.607,0,0,1-2.98,1.214,2.022,2.022,0,0,1-1.3-.675,6.759,6.759,0,0,1-1.12-1.515,9.1,9.1,0,0,1-.77-1.849,5.17,5.17,0,0,1-.25-1.678,13.35,13.35,0,0,1,.8-3.178q.748-2.189,1.759-4.612-1.424,2.117-3.234,4.812t-3.47,5.33q-1.661,2.633-2.989,4.755t-1.763,3.018a4.572,4.572,0,0,0-.337,1.185.424.424,0,0,1-.217.448c-.172.108-.4.059-.688-.145l-.055,0a4.542,4.542,0,0,1-.79-.894,8.731,8.731,0,0,1-.742-1.281,9.22,9.22,0,0,1-.54-1.447,4.357,4.357,0,0,1-.181-1.391,8.46,8.46,0,0,1,.887-2.748q.842-1.829,2.041-4.136t2.637-4.952q1.439-2.645,2.648-5.164t2.071-4.736a12.4,12.4,0,0,0,.935-3.7q.028-.565.3-.55a1.849,1.849,0,0,1,.883.439,6.535,6.535,0,0,1,1.1,1.088,8.157,8.157,0,0,1,.917,1.4,2.705,2.705,0,0,1,.343,1.365,7.942,7.942,0,0,1-.52,2.06q-.484,1.354-1.238,3.082t-1.715,3.729q-.962,2-1.954,4.069,1.561-2.32,3.183-4.744t3.006-4.365q1.384-1.941,2.315-3.2t1.1-1.249a1.685,1.685,0,0,1,.734.431,7.9,7.9,0,0,1,1.015,1.013,10.639,10.639,0,0,1,.892,1.219,1.925,1.925,0,0,1,.368,1.048,8.952,8.952,0,0,1-.97,2.566q-.939,1.931-2.067,4.275t-2.079,4.523a10.568,10.568,0,0,0-1.007,3.308,1.038,1.038,0,0,0,.159.717.568.568,0,0,0,.405.235,3.769,3.769,0,0,0,2.5-1.1,22,22,0,0,0,2.842-2.922q1.45-1.76,2.912-3.768t2.711-3.637Z" transform="translate(-123.533 -63.878)"/><path class="j" d="M766.614,336.718q-1.256,1.772-3.029,3.867t-3.671,3.938a24.733,24.733,0,0,1-3.766,3.047,5.763,5.763,0,0,1-3.364,1.122,3.081,3.081,0,0,1-1.576-.726,8.739,8.739,0,0,1-1.694-1.724,10.584,10.584,0,0,1-1.3-2.269,5.491,5.491,0,0,1-.463-2.434,13.134,13.134,0,0,1,.8-3.851,24.466,24.466,0,0,1,1.774-3.8,29.184,29.184,0,0,1,2.313-3.447q1.247-1.594,2.391-2.806a20.614,20.614,0,0,1,2.014-1.906q.869-.7,1.2-.676a2.993,2.993,0,0,1,1.687.732,8.643,8.643,0,0,1,1.559,1.646,10.659,10.659,0,0,1,1.153,1.977,3.863,3.863,0,0,1,.418,1.652,6.76,6.76,0,0,1-1.1,3.055,19.176,19.176,0,0,1-2.411,3.194,17.589,17.589,0,0,1-2.849,2.5,4.208,4.208,0,0,1-2.411.963,1.328,1.328,0,0,1-.711-.253,2.464,2.464,0,0,1-.582-.6,19.518,19.518,0,0,0-.995,2.671,10.461,10.461,0,0,0-.423,2.349,2.7,2.7,0,0,0,.136,1.176c.116.267.267.4.452.415a6.122,6.122,0,0,0,3.385-.979,21.741,21.741,0,0,0,3.667-2.734,43.6,43.6,0,0,0,3.515-3.592q1.681-1.924,2.93-3.555Zm-5.652-7.117a2.474,2.474,0,0,0-1.538.729,13.161,13.161,0,0,0-1.937,2.052,35.556,35.556,0,0,0-2.066,2.965,31.272,31.272,0,0,0-1.865,3.4,7.642,7.642,0,0,0,2.98-1.78,22.89,22.89,0,0,0,2.9-3.06,12.835,12.835,0,0,0,1.815-2.944Q761.794,329.649,760.963,329.6Z" transform="translate(-157.834 -66.402)"/><g transform="translate(535.761 295.942)"><path class="k" d="M619.876,416.032a15.856,15.856,0,0,0,.539-1.915.72.72,0,0,1,.528-.638,1.62,1.62,0,0,1,.841.241,3.429,3.429,0,0,1,.813.638,2.578,2.578,0,0,1,.525.8.662.662,0,0,1-.021.668c-.147.2-.188.347-.482.852" transform="translate(-619.653 -413.478)"/><path class="l" d="M622.312,420.176c-.282.621-.508,1.189-.677,1.673a3.449,3.449,0,0,0-.245,1.023q.008.3-.307.159a2.354,2.354,0,0,1-.693-.518,4.608,4.608,0,0,1-.7-.938,2.286,2.286,0,0,1-.34-1.1,3.25,3.25,0,0,1,.223-.941" transform="translate(-619.347 -416.98)"/></g><path class="m" d="M574.653,385.334a13.248,13.248,0,0,1-.378,5.385,21.055,21.055,0,0,1-2.219,5.148,26.923,26.923,0,0,1-3.489,4.621,37.4,37.4,0,0,1-4.2,3.867,32.505,32.505,0,0,1-4.354,2.911,19.123,19.123,0,0,1-3.908,1.691q-.884,3.821-1.342,7.116c-.306,2.2-1.376,9.866-1.2,11.184q.092.677-.348.6a2.36,2.36,0,0,1-1.026-.563,5.959,5.959,0,0,1-1.125-1.3,3.927,3.927,0,0,1-.654-1.657c-.117-.866.91-8.02,1.068-9.637s.417-3.433.777-5.446a6.715,6.715,0,0,1-3.022-.95,7.346,7.346,0,0,1-1.847-1.618,3.629,3.629,0,0,1-.775-1.552q-.118-.7.148-.743a.719.719,0,0,1,.633.335,6.21,6.21,0,0,0,.831.794,4.783,4.783,0,0,0,1.319.72,4.177,4.177,0,0,0,2.1.112l.642-.1a3.444,3.444,0,0,0,.591-.148q.715-3.392,1.628-6.843t1.848-6.215a36.556,36.556,0,0,1,1.845-4.572q.908-1.808,1.617-1.917a2.283,2.283,0,0,1,1.46.267,4.658,4.658,0,0,1,1.183.885,3.033,3.033,0,0,1,.651.966q.175.464-.135.51-.4.061-1.039,1.339t-1.44,3.388q-.8,2.109-1.651,4.831t-1.638,5.606a25.172,25.172,0,0,0,4.15-2.908,33.612,33.612,0,0,0,3.7-3.7,35.04,35.04,0,0,0,3.055-4.152,32.455,32.455,0,0,0,2.271-4.263,21.839,21.839,0,0,0,1.334-4,9.73,9.73,0,0,0,.221-3.374,7.482,7.482,0,0,0-.627-2.122,5.261,5.261,0,0,0-1.4-1.831,5.749,5.749,0,0,0-2.325-1.143,8.588,8.588,0,0,0-3.4-.057,11.8,11.8,0,0,0-4.429,1.684,22.426,22.426,0,0,0-4.1,3.275,31.046,31.046,0,0,0-3.538,4.255,32.211,32.211,0,0,0-2.713,4.676,23.62,23.62,0,0,0-1.623,4.539,10.564,10.564,0,0,0-.3,3.818,3.615,3.615,0,0,0,.521,1.677,1.728,1.728,0,0,0,.756.576,3.692,3.692,0,0,0,.7.181q.3.04.361.492t-.677.679a2.543,2.543,0,0,1-1.693-.145,4.638,4.638,0,0,1-1.891-1.612,7.977,7.977,0,0,1-1.273-3.722,10.416,10.416,0,0,1,.36-3.856,25.2,25.2,0,0,1,1.792-4.795,38.594,38.594,0,0,1,2.995-5.094,32.782,32.782,0,0,1,3.95-4.721,24.667,24.667,0,0,1,4.7-3.655,14.4,14.4,0,0,1,5.233-1.922,6.278,6.278,0,0,1,3.582.576,11.191,11.191,0,0,1,3.462,2.524,16.031,16.031,0,0,1,2.763,4.042A16.45,16.45,0,0,1,574.653,385.334Z" transform="translate(-40.145 -94.164)"/><path class="n" d="M611,442.231a2.667,2.667,0,0,0,1.557-.812,11.286,11.286,0,0,0,1.537-1.851,28.145,28.145,0,0,0,1.474-2.44q.719-1.33,1.366-2.579l.709.629q-.717,1.355-1.625,3.024t-1.887,3.172a16.928,16.928,0,0,1-2.01,2.563,3.307,3.307,0,0,1-1.96,1.146.95.95,0,0,1-.52-.175,2.331,2.331,0,0,1-.651-.635,4.78,4.78,0,0,1-.593-1.161,6.653,6.653,0,0,1-.349-1.8,6.545,6.545,0,0,1,.16-1.775,21.417,21.417,0,0,1,.6-2.211q.38-1.175.8-2.354t.809-2.205q.391-1.027.628-1.768a3.341,3.341,0,0,0,.219-.986c-.022-.3.105-.414.383-.358a2.533,2.533,0,0,1,.93.46,5.551,5.551,0,0,1,.963.9,1.776,1.776,0,0,1,.482.972,2.826,2.826,0,0,1-.228.864q-.242.667-.6,1.567t-.808,1.958q-.447,1.058-.8,2.081t-.58,1.887a4.478,4.478,0,0,0-.188,1.406Q610.848,442.245,611,442.231Z" transform="translate(-77.047 -126.883)"/><path class="o" d="M656.861,431.948a1.157,1.157,0,0,1-.9-.262,3.144,3.144,0,0,1-.763-.857,5.937,5.937,0,0,1-.547-1.14,5.516,5.516,0,0,1-.287-1.1,5.086,5.086,0,0,1,.024-1.127q.077-.735.223-1.682t.353-2.026q.206-1.08.458-2.117-.743,1.462-1.737,3.386t-1.934,3.666q-.94,1.742-1.738,3.087a5.747,5.747,0,0,1-1.194,1.605.144.144,0,0,1-.109.067,1.213,1.213,0,0,1-.754-.21,5.351,5.351,0,0,1-.916-.684,4.807,4.807,0,0,1-.818-.974,2.8,2.8,0,0,1-.428-1.133,7.557,7.557,0,0,1,.186-2.1q.272-1.464.786-3.316t1.171-3.8q.657-1.947,1.316-3.6a25.554,25.554,0,0,1,1.256-2.739q.6-1.089,1.02-1.154a3.725,3.725,0,0,1,1.554.038,2.9,2.9,0,0,1,1,.471,1.471,1.471,0,0,1,.5.623.6.6,0,0,1,.028.5q-.191.329-.648,1.3t-1.04,2.306q-.583,1.338-1.229,2.934t-1.212,3.207q-.567,1.61-.988,3.122a19.76,19.76,0,0,0-.577,2.685q.406-.761,1.108-2.092t1.55-2.884l1.728-3.16q.88-1.606,1.6-2.917t1.24-2.137q.514-.827.63-.845a1.143,1.143,0,0,1,.555.19,5.315,5.315,0,0,1,.819.549,7.146,7.146,0,0,1,.762.708,1.315,1.315,0,0,1,.384.665,3.484,3.484,0,0,1-.149,1.072q-.188.778-.479,1.821t-.618,2.242q-.328,1.2-.6,2.34t-.442,2.09a5.119,5.119,0,0,0-.1,1.439c.027.2.1.284.232.264q.422-.065,1.062-.986a22.5,22.5,0,0,0,1.357-2.28q.717-1.358,1.432-2.89t1.285-2.818l.784.579q-.634,1.4-1.443,3.092t-1.661,3.225a23.719,23.719,0,0,1-1.647,2.6A2.6,2.6,0,0,1,656.861,431.948Z" transform="translate(-98.869 -117.649)"/><path class="p" d="M688.751,404.731c.026.19,0,.31-.065.358a.461.461,0,0,1-.193.088.175.175,0,0,1-.2-.115.2.2,0,0,0-.242-.108q-.224.034-1.108,1.068a19.649,19.649,0,0,0-1.815,2.569,19.187,19.187,0,0,0-1.581,3.287,6.684,6.684,0,0,0-.45,3.231,8.073,8.073,0,0,0,.76,2.581,20.173,20.173,0,0,0,1.189,2.052q.629.948,1.166,1.881a5.951,5.951,0,0,1,.706,2.184,4.8,4.8,0,0,1-.287,2.422,7.675,7.675,0,0,1-1.259,2.136,8.125,8.125,0,0,1-1.786,1.607,4.724,4.724,0,0,1-1.831.773,3.683,3.683,0,0,1-1.6-.074,4.089,4.089,0,0,1-1.242-.594,3.239,3.239,0,0,1-.849-.886,2.429,2.429,0,0,1-.38-.957q-.1-.739.3-.8c.149-.023.245.011.287.1s.317.1.823.019a6.378,6.378,0,0,0,1.657-.543,8.351,8.351,0,0,0,1.744-1.078,5.39,5.39,0,0,0,1.3-1.5,2.8,2.8,0,0,0,.367-1.825,4.723,4.723,0,0,0-.617-1.53q-.54-.961-1.2-2.165a25.726,25.726,0,0,1-1.277-2.706,13.1,13.1,0,0,1-.844-3.207,8.726,8.726,0,0,1,.217-3.108,16.83,16.83,0,0,1,1.142-3.336,12.442,12.442,0,0,1,1.681-2.722,3.213,3.213,0,0,1,1.877-1.273,2.229,2.229,0,0,1,1.069.156,5.877,5.877,0,0,1,1.171.575,5.438,5.438,0,0,1,.945.755A1.379,1.379,0,0,1,688.751,404.731Z" transform="translate(-117.308 -111.211)"/><path class="q" d="M706.2,427.316a2.136,2.136,0,0,1-1.087-.209,5.649,5.649,0,0,1-2.628-2.321,5.492,5.492,0,0,1-.721-2.137,7.243,7.243,0,0,1,.029-2.1,12.278,12.278,0,0,1,.535-2.129,12.516,12.516,0,0,1,.92-2.038q.552-.983,1.138-1.872a7.417,7.417,0,0,1,.3-1.993,9.373,9.373,0,0,1,.871-2.106,6.771,6.771,0,0,1,1.373-1.733,3.493,3.493,0,0,1,1.841-.88,2.08,2.08,0,0,1,.965.178,4.081,4.081,0,0,1,1.266.805,6.638,6.638,0,0,1,1.2,1.465,5.579,5.579,0,0,1,.73,2.211,13.591,13.591,0,0,1-.238,4.606,23.256,23.256,0,0,1-1.516,4.726,15.56,15.56,0,0,1-2.312,3.773A4.566,4.566,0,0,1,706.2,427.316Zm-.845-1.32a3.811,3.811,0,0,0,1.778-1.345,14.6,14.6,0,0,0,2.128-3.246,21.586,21.586,0,0,0,1.623-4.518,13.7,13.7,0,0,0,.262-5.159q-.026-.195-.105-.633a4.327,4.327,0,0,0-.228-.814,2.009,2.009,0,0,0-.423-.66.756.756,0,0,0-.7-.218,1.6,1.6,0,0,0-.951.794,6.845,6.845,0,0,0-.837,1.926,2.679,2.679,0,0,1,1.155.423,2.9,2.9,0,0,1,.743.711,2.28,2.28,0,0,1,.349.7c.054.209.03.32-.072.336a.183.183,0,0,1-.19-.1c-.049-.075-.2-.094-.458-.055a1.827,1.827,0,0,0-.939.743,14.068,14.068,0,0,0-1.19,1.78l.021.446a2.545,2.545,0,0,0,.14.6,1.651,1.651,0,0,1,.114.407c.022.164-.072.244-.281.243a1.643,1.643,0,0,1-.783-.28,29.558,29.558,0,0,0-1.53,3.754,7.39,7.39,0,0,0-.424,3.236,3.438,3.438,0,0,0,.163.624Q704.851,426.073,705.351,426Z" transform="translate(-131.209 -114.244)"/><path class="r" d="M546.444,514.172" transform="translate(-41.426 -175.767)"/><path class="s" d="M590.1,475.158c5.466,2.264,36.175,16.125,42.7,1.078a2.42,2.42,0,0,1,1.446-1.306h0a.528.528,0,0,1,.675.659c-1.5,4.7-10.134,23.717-46.8.253a.525.525,0,0,1,.247-.964h0A3.818,3.818,0,0,1,590.1,475.158Z" transform="translate(-65.386 -153.037)"/><path class="t" d="M792.936,319.056a1.65,1.65,0,0,0,1.889,2.66,36.593,36.593,0,0,0,6.158-5.792c.779-1.031.323-2.727-1.126-1.9S794.387,317.9,792.936,319.056Z" transform="translate(-183.659 -59.896)"/><path class="u" d="M809.08,336.287c-1.867.5-1.427,3.64.515,3.118s6.13-2.294,7.227-3.234.794-2.5-.464-2.163S810.666,335.86,809.08,336.287Z" transform="translate(-192.617 -71.551)"/><path class="v" d="M496.772,236.209c1.177,1.177,3.624-1.365,2.448-2.918s-5.225-3.719-6.59-4.283-2.918.659-1.93,2.118S496.066,235.5,496.772,236.209Z" transform="translate(-9.009 -10.776)"/><path class="w" d="M516.674,218.891a1.758,1.758,0,0,0,3.2-1.365,44.509,44.509,0,0,0-3.2-7.06C516.157,209.572,512.344,211.031,516.674,218.891Z" transform="translate(-23.028 0)"/></g></svg>