<svg xmlns="http://www.w3.org/2000/svg" width="15.073" height="15.073" viewBox="0 0 15.073 15.073"><defs><style>.a{fill:#fff;}</style></defs><path class="a" d="M10.993,0H4.08A4.085,4.085,0,0,0,0,4.08v6.913a4.085,4.085,0,0,0,4.08,4.08h6.913a4.085,4.085,0,0,0,4.08-4.08V4.08A4.085,4.085,0,0,0,10.993,0Zm3.2,10.993a3.2,3.2,0,0,1-3.2,3.2H4.08a3.2,3.2,0,0,1-3.2-3.2V4.08a3.2,3.2,0,0,1,3.2-3.2h6.913a3.2,3.2,0,0,1,3.2,3.2Zm0,0" transform="translate(0)"/><path class="a" d="M120.125,116a4.121,4.121,0,1,0,4.121,4.121A4.126,4.126,0,0,0,120.125,116Zm0,7.359a3.238,3.238,0,1,1,3.238-3.238A3.241,3.241,0,0,1,120.125,123.363Zm0,0" transform="translate(-112.589 -112.589)"/><path class="a" d="M359.194,66.285a1.218,1.218,0,1,0,1.218,1.218A1.219,1.219,0,0,0,359.194,66.285Zm0,1.552a.334.334,0,1,1,.334-.334A.335.335,0,0,1,359.194,67.837Zm0,0" transform="translate(-347.438 -64.334)"/></svg>