<svg xmlns="http://www.w3.org/2000/svg" width="17.843" height="17.843" viewBox="0 0 17.843 17.843"><defs><style>.a{fill:#707179;}</style></defs><path class="a" d="M13.013,0H4.83A4.835,4.835,0,0,0,0,4.83v8.183a4.835,4.835,0,0,0,4.83,4.83h8.183a4.835,4.835,0,0,0,4.83-4.83V4.83A4.835,4.835,0,0,0,13.013,0ZM16.8,13.013A3.788,3.788,0,0,1,13.013,16.8H4.83a3.788,3.788,0,0,1-3.784-3.784V4.83A3.788,3.788,0,0,1,4.83,1.046h8.183A3.788,3.788,0,0,1,16.8,4.83Zm0,0" transform="translate(0)"/><path class="a" d="M120.883,116a4.879,4.879,0,1,0,4.879,4.879A4.884,4.884,0,0,0,120.883,116Zm0,8.711a3.833,3.833,0,1,1,3.833-3.833A3.837,3.837,0,0,1,120.883,124.715Zm0,0" transform="translate(-111.961 -111.961)"/><path class="a" d="M359.418,66.285a1.442,1.442,0,1,0,1.442,1.442A1.443,1.443,0,0,0,359.418,66.285Zm0,1.837a.4.4,0,1,1,.4-.4A.4.4,0,0,1,359.418,68.122Zm0,0" transform="translate(-345.501 -63.975)"/></svg>